PathFileType	4	(X/Y/Z)	C:\Users\Caesar\Desktop\±œ“µ…Ëº∆\Lee-Son's Toolbox\Example Data\Static.trc	Maker trajectories (.TRC) by Lee-Son ToolBox
DataRate	CameraRate	NumFrames	NumMarkers	Units	OrigDataRate	OrigDataStarFrame	OrigNumFrames
100	100	4	42	mm	100	1	264
Frame#	Time	CLAV			C7			RACR			LACR			RASH			RPSH			RUA3			RLEL			RMEL			RFAsuperior			RFAradius			RFAulna			LASH			LPSH			LUA1			LLEL			LMEL			LFAsuperior			LFAradius			LFAulna			LASI			RASI			LPSI			RPSI			RTH3			RLFC			RMFC			RTB3			RLMAL			RMMAL			RCAL			RMT5			RTOE			LTH1			LLFC			LMFC			LTB1			LLMAL			LMMAL			LCAL			LMT5			LTOE		
		X1	Y1	Z1	X2	Y2	Z2	X3	Y3	Z3	X4	Y4	Z4	X5	Y5	Z5	X6	Y6	Z6	X7	Y7	Z7	X8	Y8	Z8	X9	Y9	Z9	X10	Y10	Z10	X11	Y11	Z11	X12	Y12	Z12	X13	Y13	Z13	X14	Y14	Z14	X15	Y15	Z15	X16	Y16	Z16	X17	Y17	Z17	X18	Y18	Z18	X19	Y19	Z19	X20	Y20	Z20	X21	Y21	Z21	X22	Y22	Z22	X23	Y23	Z23	X24	Y24	Z24	X25	Y25	Z25	X26	Y26	Z26	X27	Y27	Z27	X28	Y28	Z28	X29	Y29	Z29	X30	Y30	Z30	X31	Y31	Z31	X32	Y32	Z32	X33	Y33	Z33	X34	Y34	Z34	X35	Y35	Z35	X36	Y36	Z36	X37	Y37	Z37	X38	Y38	Z38	X39	Y39	Z39	X40	Y40	Z40	X41	Y41	Z41	X42	Y42	Z42

1	0	584.124	1418.8	215.356	563.765	1467.71	355.415	729.073	1421.87	300.197	408.141	1450.57	304.529	730.252	1379.17	241.408	711.895	1364.81	378.488	811.248	1278.25	335.253	868.661	1132.31	342.479	819.81	1106.82	295.104	897.001	1076.67	351.5	1056.96	968.736	304.186	1000.53	924.626	336.448	410.22	1412.59	243.471	396.931	1388.9	373.275	324.536	1380.08	330.408	233.393	1156.96	346.183	292.711	1144.53	296.707	198.28	1108.25	352.986	73.3387	987.959	297.439	125.488	946.09	334.129	417.036	967.995	200.831	690.816	963.932	204.639	515.595	986.848	372.839	608.3	980.385	375.925	757.648	770.565	242.271	760.089	506.875	279.382	658.856	490.507	288.885	803.949	394.728	333.72	783.84	93.2171	349.755	696.608	102.315	311.087	734.309	44.6323	411.381	824.976	27.263	236.446	757.659	38.653	154.886	354.52	678.788	263.856	368.507	514.869	275.898	468.969	492.471	274.967	341.481	230.801	350.135	352.173	102.516	349.157	436.493	113.336	312.428	407.313	40.9549	409.006	306.374	30.2759	241.401	365.301	40.3145	154.915
2	0.01	584.174	1418.81	215.193	563.81	1467.72	355.256	729.132	1421.89	300.01	408.191	1450.57	304.373	730.308	1379.2	241.225	711.974	1364.84	378.305	811.325	1278.29	335.062	868.755	1132.36	342.303	819.896	1106.85	294.941	897.104	1076.72	351.324	1057.06	968.801	303.986	1000.66	924.693	336.277	410.271	1412.59	243.317	396.988	1388.91	373.128	324.597	1380.07	330.259	233.469	1156.96	346.088	292.788	1144.52	296.615	198.356	1108.25	352.902	73.424	987.939	297.373	125.568	946.083	334.086	417.109	967.965	200.754	690.887	963.914	204.565	515.665	986.889	372.754	608.37	980.431	375.846	757.713	770.562	242.251	760.139	506.875	279.387	658.906	490.522	288.905	803.993	394.723	333.727	783.847	93.2152	349.758	696.614	102.321	311.089	734.312	44.6323	411.383	824.98	27.2626	236.447	757.662	38.6517	154.886	354.57	678.79	263.854	368.556	514.883	275.917	469.013	492.475	274.979	341.494	230.811	350.138	352.179	102.525	349.156	436.498	113.338	312.425	407.316	40.9574	409.007	306.368	30.275	241.396	365.293	40.3097	154.91
3	0.02	584.224	1418.83	215.031	563.855	1467.73	355.096	729.191	1421.92	299.824	408.241	1450.57	304.218	730.365	1379.22	241.042	712.052	1364.87	378.123	811.401	1278.32	334.871	868.849	1132.4	342.127	819.981	1106.88	294.778	897.205	1076.76	351.148	1057.17	968.865	303.787	1000.78	924.759	336.107	410.322	1412.59	243.163	397.046	1388.91	372.98	324.658	1380.07	330.111	233.544	1156.97	345.994	292.866	1144.52	296.523	198.431	1108.26	352.818	73.5089	987.92	297.307	125.648	946.077	334.044	417.182	967.935	200.677	690.958	963.896	204.491	515.734	986.93	372.669	608.44	980.477	375.767	757.777	770.559	242.23	760.189	506.875	279.392	658.957	490.537	288.924	804.037	394.718	333.734	783.853	93.2135	349.762	696.621	102.327	311.09	734.315	44.6322	411.385	824.983	27.2621	236.448	757.664	38.6504	154.886	354.619	678.793	263.852	368.605	514.896	275.936	469.058	492.479	274.991	341.507	230.821	350.14	352.185	102.534	349.154	436.503	113.341	312.421	407.319	40.9598	409.007	306.361	30.2742	241.392	365.285	40.3049	154.905
4	0.03	584.274	1418.84	214.869	563.9	1467.75	354.937	729.25	1421.94	299.639	408.29	1450.56	304.063	730.42	1379.24	240.86	712.13	1364.9	377.942	811.477	1278.36	334.68	868.942	1132.45	341.951	820.066	1106.91	294.615	897.307	1076.81	350.972	1057.27	968.929	303.588	1000.91	924.825	335.936	410.372	1412.59	243.01	397.103	1388.92	372.833	324.718	1380.06	329.963	233.619	1156.97	345.899	292.943	1144.52	296.431	198.506	1108.26	352.735	73.5933	987.9	297.241	125.728	946.071	334.001	417.255	967.906	200.6	691.028	963.878	204.417	515.803	986.971	372.584	608.509	980.523	375.689	757.841	770.556	242.21	760.238	506.875	279.397	659.007	490.552	288.943	804.081	394.713	333.741	783.86	93.2117	349.766	696.627	102.333	311.092	734.318	44.6321	411.387	824.987	27.2617	236.448	757.667	38.6491	154.886	354.668	678.796	263.849	368.653	514.909	275.955	469.102	492.484	275.002	341.52	230.831	350.143	352.191	102.543	349.153	436.508	113.344	312.417	407.322	40.9623	409.007	306.355	30.2734	241.387	365.277	40.3002	154.9
